<svg width="142" height="31" viewBox="0 0 142 31" fill="none" xmlns="http://www.w3.org/2000/svg">
<path d="M117.268 18.1489V12.0858H96.102V29.5449H117.268V23.369H103.749V18.1489H117.268Z" fill="white"/>
<path d="M43.5837 0C34.9329 0 27.9169 6.93957 27.9169 15.5013C27.9169 24.063 34.9329 31 43.5837 31C52.2345 31 59.2504 24.0579 59.2504 15.5013C59.2504 6.9447 52.2371 0 43.5837 0ZM43.5837 24.5986C38.5039 24.5986 34.387 20.5266 34.387 15.5013C34.387 10.476 38.5039 6.39886 43.5837 6.39886C48.6635 6.39886 52.7829 10.4709 52.7829 15.5013C52.7829 20.5317 48.6635 24.5986 43.5837 24.5986Z" fill="white"/>
<path d="M56.6912 5.56466C57.1958 6.20275 57.6541 6.87672 58.0583 7.58656H61.2843V29.5456H68.0505V7.58656H72.6437V1.45422H56.6912V5.56466Z" fill="white"/>
<path d="M13.7332 14.9797L7.09574 1.45422H0V29.5456H6.34136V13.8752L13.7332 28.3566L21.8845 13.0629V29.5431H28.2259V21.6118C27.4432 19.7257 27.0081 17.6628 27.0081 15.4999C27.0081 13.3371 27.4432 11.2716 28.2259 9.38552V1.45422H20.3758L13.7358 14.9797H13.7332Z" fill="white"/>
<path d="M129.469 8.08115L125.625 1.45422H118.442L125.878 14.2724L129.469 8.08115Z" fill="white"/>
<path d="M133.813 15.5717L142 1.45422H134.737L118.442 29.5456L125.684 29.5559L130.244 21.8014L134.737 29.5456H141.92L133.813 15.5717Z" fill="white"/>
<path d="M73.8174 7.58656H88.2096V12.084H76.531C76.5516 12.1096 86.9687 20.9147 86.9687 29.5456H92.6303C92.6303 26.327 90.6066 21.2171 88.256 18.1497H94.9295L94.8857 1.45422H73.8199V7.58656H73.8174Z" fill="white"/>
<path d="M117.271 1.45422H96.102V7.58656H117.271V1.45422Z" fill="white"/>
</svg>
